# File created by Blade
# Date/Time:  Tue Sep 30 19:31:45 2014
#---------------------------------------------------------
:version 1.10
:name HOM
:units
  mass 1.0
  length 1.000000
  angle deg
:documentation
     Acclaim Skeleton File
:root
   axis xyz
   order TX TY TZ RX RY RZ
   position 0.000000 0.000000 0.000000
   orientation 0 0 0
:bonedata
   begin
      id 1
      name Spine_dum
      direction 0.000000 1.000000 0.000000
      length 3.241213
      axis 0.0 0.0 0.0 xyz
   end
   begin
      id 2
      name LeftUpLeg_dum
      direction 1.000000 0.000000 0.000000
      length 3.434019
      axis 0.0 0.0 0.0 xyz
   end
   begin
      id 3
      name RightUpLeg_dum
      direction -1.000000 0.000000 0.000000
      length 3.434019
      axis 0.0 0.0 0.0 xyz
   end
   begin
      id 4
      name Spine
      direction 0.000000 1.000000 0.000000
      length 0.000000
      axis 0.0 0.0 0.0 xyz
      dof rx ry rz
   end
   begin
      id 5
      name Spine_dum1
      direction 0.000000 1.000000 0.000000
      length 18.382958
      axis 0.0 0.0 0.0 xyz
   end
   begin
      id 6
      name Spine_dum2
      direction 0.000000 1.000000 0.000000
      length 12.828261
      axis 0.0 0.0 0.0 xyz
   end
   begin
      id 7
      name Spine_dum3
      direction 0.000000 1.000000 0.000000
      length 12.828261
      axis 0.0 0.0 0.0 xyz
   end
   begin
      id 8
      name Head
      direction 0.000000 1.000000 0.000000
      length 4.527550
      axis 0.0 0.0 0.0 xyz
      dof rx ry rz
   end
   begin
      id 9
      name LeftShoulder
      direction 1.000000 0.000000 0.000000
      length 7.748055
      axis 0.0 0.0 -90.0 xyz
      dof rx ry rz
   end
   begin
      id 10
      name LeftArm
      direction 1.000000 0.000000 0.000000
      length 10.635614
      axis 0.0 0.0 -90.0 xyz
      dof rx ry rz
   end
   begin
      id 11
      name LeftForeArm
      direction 1.000000 0.000000 0.000000
      length 8.346755
      axis 0.0 0.0 -90.0 xyz
      dof ry rz rx
   end
   begin
      id 12
      name LeftHand
      direction 0.000000 0.000000 0.000000
      length 0.000000
      axis 0.0 0.0 -90.0 xyz
      dof rx ry rz
   end
   begin
      id 13
      name LeftHand_dum1
      direction 0.000000 0.000000 0.000000
      length 0.000000
      axis 0.0 0.0 -90.0 xyz
   end
   begin
      id 14
      name LeftHand_dum2
      direction 1.000000 0.000000 0.000000
      length 3.937000
      axis 0.0 0.0 -90.0 xyz
   end
   begin
      id 15
      name LeftHandThumb1
      direction 0.000000 0.000000 1.000000
      length 3.937000
      axis 0.0 0.0 -90.0 xyz
      dof rx rz ry
   end
   begin
      id 16
      name RightShoulder
      direction -1.000000 0.000000 0.000000
      length 7.748055
      axis 0.0 0.0 90.0 xyz
      dof rx ry rz
   end
   begin
      id 17
      name RightArm
      direction -1.000000 0.000000 0.000000
      length 10.635614
      axis 0.0 0.0 90.0 xyz
      dof rx ry rz
   end
   begin
      id 18
      name RightForeArm
      direction -1.000000 0.000000 0.000000
      length 8.346755
      axis 0.0 0.0 90.0 xyz
      dof ry rz rx
   end
   begin
      id 19
      name RightHand
      direction 0.000000 0.000000 0.000000
      length 0.000000
      axis 0.0 0.0 90.0 xyz
      dof rx ry rz
   end
   begin
      id 20
      name RightHand_dum1
      direction 0.000000 0.000000 0.000000
      length 0.000000
      axis 0.0 0.0 90.0 xyz
   end
   begin
      id 21
      name RightHand_dum2
      direction -1.000000 0.000000 0.000000
      length 3.937000
      axis 0.0 0.0 90.0 xyz
   end
   begin
      id 22
      name RightHandThumb1
      direction 0.000000 0.000000 1.000000
      length 3.937000
      axis 0.0 0.0 90.0 xyz
      dof rx rz ry
   end
   begin
      id 23
      name LeftUpLeg
      direction 0.000000 -1.000000 0.000000
      length 15.713025
      axis 0.0 0.0 0.0 xyz
      dof rx ry rz
   end
   begin
      id 24
      name LeftLeg
      direction 0.000000 -1.000000 0.000000
      length 14.435119
      axis 0.0 0.0 0.0 xyz
      dof rx ry rz
   end
   begin
      id 25
      name LeftFoot
      direction 0.000000 -0.258819 0.965926
      length 4.938895
      axis 15.0 0.0 0.0 xyz
      dof rx ry rz
   end
   begin
      id 26
      name LeftToeBase
      direction 0.000000 0.000000 1.000000
      length 2.952750
      axis 0.0 0.0 0.0 xyz
      dof rx ry rz
   end
   begin
      id 27
      name RightUpLeg
      direction 0.000000 -1.000000 0.000000
      length 15.713025
      axis 0.0 0.0 0.0 xyz
      dof rx ry rz
   end
   begin
      id 28
      name RightLeg
      direction 0.000000 -1.000000 0.000000
      length 14.435119
      axis 0.0 0.0 0.0 xyz
      dof rx ry rz
   end
   begin
      id 29
      name RightFoot
      direction 0.000000 -0.258819 0.965926
      length 4.938895
      axis 15.0 0.0 0.0 xyz
      dof rx ry rz
   end
   begin
      id 30
      name RightToeBase
      direction 0.000000 0.000000 1.000000
      length 2.952750
      axis 0.0 0.0 0.0 xyz
      dof rx ry rz
   end
:hierarchy
   begin
      root Spine_dum LeftUpLeg_dum RightUpLeg_dum
      Spine_dum Spine
      LeftUpLeg_dum LeftUpLeg
      RightUpLeg_dum RightUpLeg
      Spine Spine_dum1 Spine_dum2 Spine_dum3
      Spine_dum1 Head
      Spine_dum2 LeftShoulder
      Spine_dum3 RightShoulder
      LeftShoulder LeftArm
      LeftArm LeftForeArm
      LeftForeArm LeftHand
      LeftHand LeftHand_dum1 LeftHand_dum2
      LeftHand_dum1 LeftHandThumb1
      RightShoulder RightArm
      RightArm RightForeArm
      RightForeArm RightHand
      RightHand RightHand_dum1 RightHand_dum2
      RightHand_dum1 RightHandThumb1
      LeftUpLeg LeftLeg
      LeftLeg LeftFoot
      LeftFoot LeftToeBase
      RightUpLeg RightLeg
      RightLeg RightFoot
      RightFoot RightToeBase
   end

# File created by Blade
# Date/Time:  Mon Sep 22 19:00:17 2014
# Frame Rate: 120.000 fps
#------------------------------------------------------
:FULLY-SPECIFIED
:DEGREES
813
root -0.685837 32.788077 -3.535186 38.757957 21.745206 2.931253
Spine -48.943321 16.473096 -17.926674
Head 11.503440 -20.309026 -20.706406
LeftShoulder -5.547136 40.786356 14.981788
LeftArm 73.479033 35.256857 -45.433399
LeftForeArm 8.530134 0.000000 7.598554
LeftHand -18.455124 0.000000 -11.078453
LeftHandThumb1 -26.253704 0.000000 33.147579
RightShoulder -8.646679 9.610650 -49.795785
RightArm 102.556162 12.630048 131.095099
RightForeArm 88.443317 -0.000000 139.345213
RightHand 28.578804 0.000000 -6.185082
RightHandThumb1 -24.326973 -0.000000 -32.862282
LeftUpLeg -35.454323 -7.261409 7.357087
LeftLeg -0.680374 -0.000000 0.000000
LeftFoot 0.868458 -5.597255 -3.915631
LeftToeBase 1.802725 -0.000000 -0.000000
RightUpLeg -30.387458 -20.459499 10.793705
RightLeg -3.827101 -0.000000 0.000000
RightFoot -9.492622 -12.601849 19.648774
RightToeBase 14.909283 -0.000000 -0.000000
814
root -0.684522 32.787696 -3.535879 38.766201 21.818243 2.941956
Spine -48.990320 16.544602 -17.990747
Head 11.604877 -20.355641 -20.777172
LeftShoulder -5.575211 40.780744 14.976304
LeftArm 73.464066 35.141689 -45.497251
LeftForeArm 8.406089 -0.000000 7.766124
LeftHand -18.463671 -0.000000 -11.154097
LeftHandThumb1 -26.253704 0.000000 33.147579
RightShoulder -8.471069 9.595589 -49.737765
RightArm 102.304815 12.438696 130.956378
RightForeArm 88.664640 -0.000000 139.698794
RightHand 28.790573 -0.000000 -6.249106
RightHandThumb1 -24.326973 -0.000000 -32.862282
LeftUpLeg -35.470888 -7.283572 7.363794
LeftLeg -0.683838 -0.000000 0.000000
LeftFoot 0.883863 -5.629676 -3.927607
LeftToeBase 1.799725 -0.000000 -0.000000
RightUpLeg -30.375813 -20.463395 10.790139
RightLeg -3.840017 -0.000000 0.000000
RightFoot -9.514275 -12.652164 19.676726
RightToeBase 14.908224 -0.000000 -0.000000
815
root -0.682964 32.787299 -3.537732 38.769266 21.896565 2.952337
Spine -49.028146 16.623760 -18.062230
Head 11.703636 -20.448698 -20.839150
LeftShoulder -5.577388 40.755509 14.990130
LeftArm 73.450747 35.046333 -45.562699
LeftForeArm 8.293106 -0.000000 7.922819
LeftHand -18.543796 0.000000 -11.021976
LeftHandThumb1 -26.253704 0.000000 33.147579
RightShoulder -8.312317 9.578058 -49.667144
RightArm 102.095192 12.274941 130.809203
RightForeArm 88.839647 -0.000000 140.015182
RightHand 28.863871 0.000000 -6.029292
RightHandThumb1 -24.326973 -0.000000 -32.862282
LeftUpLeg -35.482364 -7.311221 7.373546
LeftLeg -0.691928 -0.000000 0.000000
LeftFoot 0.898763 -5.674134 -3.878269
LeftToeBase 1.790324 -0.000000 -0.000000
RightUpLeg -30.366225 -20.458024 10.779105
RightLeg -3.832135 -0.000000 0.000000
RightFoot -9.555421 -12.719198 19.726811
RightToeBase 14.873507 -0.000000 -0.000000
816
root -0.682209 32.786831 -3.538883 38.760653 22.002155 2.964486
Spine -49.052599 16.707348 -18.139733
Head 11.802570 -20.683544 -20.928230
LeftShoulder -5.517649 40.711287 15.047474
LeftArm 73.463859 35.010585 -45.572289
LeftForeArm 8.466055 -0.000000 8.079816
LeftHand -18.583628 -0.000000 -10.815342
LeftHandThumb1 -26.253704 0.000000 33.147579
RightShoulder -8.141798 9.502647 -49.580581
RightArm 101.946613 12.148640 130.750748
RightForeArm 88.767216 -0.000000 140.330935
RightHand 29.023681 -0.000000 -6.111494
RightHandThumb1 -24.326973 -0.000000 -32.862282
LeftUpLeg -35.487889 -7.338053 7.387298
LeftLeg -0.693498 -0.000000 0.000000
LeftFoot 0.915481 -5.755267 -3.905649
LeftToeBase 1.791420 -0.000000 -0.000000
RightUpLeg -30.338347 -20.468766 10.776237
RightLeg -3.834284 -0.000000 0.000000
RightFoot -9.595912 -12.799084 19.738617
RightToeBase 14.908011 -0.000000 -0.000000
817
root -0.680566 32.786174 -3.538435 38.758827 22.144499 2.984064
Spine -49.070569 16.754297 -18.197071
Head 11.928020 -20.772629 -20.982578
LeftShoulder -5.485291 40.690168 15.096492
LeftArm 73.539315 34.960858 -45.529322
LeftForeArm 8.408599 -0.000000 8.223819
LeftHand -18.530319 -0.000000 -10.827601
LeftHandThumb1 -26.253704 0.000000 33.147579
RightShoulder -7.995186 9.429130 -49.490295
RightArm 101.820691 11.965640 130.694077
RightForeArm 88.660477 -0.000000 140.696246
RightHand 29.125596 -0.000000 -6.124243
RightHandThumb1 -24.326973 -0.000000 -32.862282
LeftUpLeg -35.504673 -7.410471 7.429639
LeftLeg -0.693379 -0.000000 0.000000
LeftFoot 0.926107 -5.814745 -3.911637
LeftToeBase 1.827251 -0.000000 -0.000000
RightUpLeg -30.315501 -20.539970 10.808584
RightLeg -3.844546 -0.000000 0.000000
RightFoot -9.628069 -12.825463 19.807677
RightToeBase 14.869009 -0.000000 -0.000000
818
root -0.678740 32.785714 -3.538739 38.753872 22.283599 2.994253
Spine -49.078311 16.803444 -18.231005
Head 12.002969 -20.876383 -21.039677
LeftShoulder -5.477523 40.652664 15.123735
LeftArm 73.617451 34.940171 -45.456047
LeftForeArm 8.424823 -0.000000 8.370443
LeftHand -18.644788 -0.000000 -10.776404
LeftHandThumb1 -26.253704 0.000000 33.147579
RightShoulder -7.868867 9.498158 -49.428548
RightArm 101.644407 11.853662 130.739134
RightForeArm 88.478177 -0.000000 141.057775
RightHand 28.971920 -0.000000 -6.528231
RightHandThumb1 -24.326973 -0.000000 -32.862282
LeftUpLeg -35.519615 -7.431135 7.436886
LeftLeg -0.690004 -0.000000 0.000000
LeftFoot 0.941018 -5.895359 -3.878679
LeftToeBase 1.836254 -0.000000 -0.000000
RightUpLeg -30.302006 -20.608065 10.849053
RightLeg -3.835952 -0.000000 0.000000
RightFoot -9.661094 -12.897026 19.794877
RightToeBase 14.876931 -0.000000 -0.000000
